<svg xmlns="http://www.w3.org/2000/svg" viewBox="0 0 1024 1024" width="1024" height="1024"><metadata><rdf:RDF xmlns:rdf="http://www.w3.org/1999/02/22-rdf-syntax-ns#" xmlns:dc="http://purl.org/dc/elements/1.1/"><rdf:Description><dc:creator>RealFaviconGenerator</dc:creator><dc:source>https://realfavicongenerator.net</dc:source></rdf:Description></rdf:RDF></metadata><rect width="1000" height="1000" style="stroke: rgb(0, 0, 0); fill: rgb(2, 18, 40);" x="12" y="12" rx="122" ry="122"></rect><path d="M 102.082 857.138 C 70.504 578 96.342 404.955 156.817 325.226 C 190.17 281.261 242.484 257.045 285.113 259.557 C 306.656 260.822 342.299 268.989 361.873 280.235 C 376.848 288.838 402.63 314.285 413.066 324.873 C 478.112 292.587 554.682 308.357 570.255 312.082 C 583.53 277.466 599.804 250.425 618.821 229.96 C 658.12 187.668 715.617 168.671 769.765 166.949 C 822.646 165.261 934.348 188.577 934.348 188.577 C 938.7 188.915 928.809 268.255 929.834 268.503 C 929.499 268.434 869.453 256.17 843.06 252.328 C 816.729 248.495 794.258 246.577 772.327 247.274 C 729.375 248.646 703.698 256.688 677.699 284.67 C 641.989 323.102 618.219 390.776 610.401 510.683 L 806.025 498.169 L 811.155 578.371 L 607.639 591.388 C 607.182 651.032 609.669 720.676 615.4 802.012 L 535.22 807.491 C 522.751 619.71 528.333 482.379 549.226 384.787 C 525.37 381.516 479.465 377.606 454.732 391.193 C 396.501 423.177 397.189 506.182 403.418 609.685 L 323.176 614.115 C 305.875 496.16 322.506 422.163 353.941 376.275 C 343.477 366.682 329.295 354.207 321.84 349.923 C 309.605 342.892 291.993 340.465 280.392 339.782 C 256.729 338.391 242.809 344.845 220.849 373.793 C 170.705 439.899 149.725 581.681 181.906 847.802 L 102.082 857.138 Z" style="fill: rgb(255, 255, 255);"></path></svg>